<svg width="44" height="43" viewBox="0 0 44 43" fill="none" xmlns="http://www.w3.org/2000/svg">
<circle cx="22.3008" cy="21.5688" r="21.4253" fill="#ECECEF"/>
<path d="M19.0468 15.358C19.9819 14.316 21.2762 13.6984 22.714 13.6984C24.1067 13.6984 25.3635 14.2774 26.2921 15.2615C27.2172 16.2264 27.7963 17.5771 27.7963 19.0823V21.0312C27.7963 22.2856 27.9472 23.5399 28.3059 24.7363C28.6644 25.9134 29.2327 27.0328 30.0625 27.9976C30.394 28.3835 30.9784 28.4414 31.367 28.1133C31.7558 27.7853 31.8033 27.1871 31.4712 26.8011C30.8273 26.0486 30.3742 25.1609 30.0787 24.196C29.7829 23.2119 29.6482 22.1505 29.6482 21.0312V19.0823C29.6482 17.0947 28.8819 15.2807 27.6322 13.9878C26.3862 12.6756 24.6395 11.8459 22.714 11.8459C20.7256 11.8459 18.9283 12.7143 17.6742 14.1037C17.3314 14.4896 17.3594 15.0685 17.7386 15.4159C18.1172 15.7632 18.7035 15.7247 19.0468 15.358Z" fill="#805EB5"/>
<path d="M30.7664 26.468H14.6599V27.3933L15.3642 28.0099C16.1934 27.0269 16.7623 25.909 17.1208 24.7333C17.4795 23.5384 17.6304 22.2857 17.6304 21.0329V19.0862C17.6304 18.3538 17.7651 17.66 18.0078 17.0432C18.1918 16.5614 17.9554 16.0217 17.4785 15.8482C17.0011 15.6555 16.4647 15.8868 16.2803 16.3687C15.9569 17.2167 15.7786 18.1225 15.7786 19.0862V21.0329C15.7786 22.1508 15.6439 23.2108 15.348 24.1937C15.0522 25.1574 14.5994 26.044 13.9555 26.7957C13.7221 27.0848 13.6689 27.4703 13.8198 27.7979C13.9707 28.1256 14.2999 28.3184 14.6599 28.3184H30.7664C31.2773 28.3184 31.6913 27.9136 31.6913 27.3933C31.6913 26.8921 31.2773 26.468 30.7664 26.468Z" fill="#F08BA3"/>
<path d="M21.8935 31.292C21.8926 31.292 21.8918 31.292 21.8903 31.292C21.3182 31.292 20.788 31.0617 20.4139 30.6779C20.0455 30.3132 19.8118 29.7951 19.8027 29.2386H20.8501C20.9511 29.4305 21.0822 29.6224 21.2366 29.7759C21.6112 30.1597 22.1403 30.39 22.7135 30.39C23.101 30.39 23.4685 30.2749 23.7819 30.083C23.6778 30.3133 23.5366 30.5051 23.3672 30.6779C22.9935 31.0617 22.4658 31.292 21.8935 31.292Z" fill="#EFD0E2"/>
<path d="M22.7145 30.3906C22.1412 30.3906 21.6122 30.1603 21.2376 29.7765C21.0831 29.623 20.952 29.4311 20.8511 29.2392H23.9801C23.9745 29.5462 23.9043 29.8342 23.7828 30.0837C23.4694 30.2756 23.1019 30.3906 22.7145 30.3906Z" fill="#8C5EB5"/>
<path d="M30.1802 29.209C30.1815 29.209 30.1829 29.209 30.1844 29.209C30.1829 29.209 30.1815 29.209 30.1802 29.209ZM30.1996 29.209C30.2024 29.209 30.2057 29.209 30.2084 29.209C30.2057 29.209 30.2024 29.209 30.1996 29.209ZM30.219 29.1899C30.4935 29.1131 30.7125 28.9018 30.8117 28.6331C30.7584 28.7867 30.6689 28.921 30.5439 29.017C30.4459 29.113 30.3351 29.1707 30.219 29.1899ZM30.8129 28.6331C30.8144 28.6331 30.8161 28.614 30.8183 28.614C30.8161 28.614 30.8144 28.6331 30.8129 28.6331ZM30.8209 28.614C30.8217 28.5948 30.8232 28.5949 30.8242 28.5949C30.8232 28.5949 30.8217 28.5948 30.8209 28.614ZM30.8282 28.5949C30.8286 28.5949 30.8292 28.5756 30.8298 28.5756C30.8292 28.5756 30.8286 28.5949 30.8282 28.5949ZM30.8348 28.5564H30.8351H30.8348ZM30.8645 28.4029C30.8649 28.4029 30.8653 28.3836 30.8657 28.3836C30.8653 28.3836 30.8649 28.4029 30.8645 28.4029ZM30.8657 28.3836C30.8662 28.3836 30.8666 28.3645 30.8672 28.3645C30.8666 28.3645 30.8662 28.3836 30.8657 28.3836ZM30.8672 28.3645C30.8682 28.3453 30.8682 28.3452 30.8685 28.326C30.8682 28.3452 30.8682 28.3453 30.8672 28.3645Z" fill="#FDE5F3"/>
<path d="M30.87 28.3242C30.87 28.3242 30.87 28.3243 30.87 28.3051C30.87 28.2859 30.8689 28.2667 30.8672 28.2475C30.8695 28.2667 30.8704 28.305 30.87 28.3242ZM30.8672 28.2475C30.8668 28.2283 30.8658 28.2282 30.8654 28.2282C30.8658 28.2282 30.8668 28.2283 30.8672 28.2475ZM30.8649 28.2282C30.8645 28.209 30.8635 28.2092 30.8626 28.19C30.8635 28.2092 30.8645 28.209 30.8649 28.2282ZM30.8626 28.19C30.8616 28.19 30.8606 28.1899 30.8597 28.1707C30.8606 28.1899 30.8616 28.19 30.8626 28.19ZM30.8589 28.1707C30.8579 28.1707 30.857 28.1515 30.856 28.1515C30.857 28.1515 30.8579 28.1707 30.8589 28.1707ZM30.8553 28.1515C30.8543 28.1323 30.853 28.1322 30.852 28.1322C30.853 28.1322 30.8543 28.1323 30.8553 28.1515ZM30.8505 28.1322C30.8497 28.1322 30.8487 28.1131 30.8472 28.1131C30.8487 28.1131 30.8497 28.1322 30.8505 28.1322ZM30.8459 28.1131C30.8445 28.0939 30.8435 28.094 30.8422 28.094C30.8435 28.094 30.8445 28.0939 30.8459 28.1131ZM30.8405 28.0747C30.8389 28.0747 30.8374 28.0747 30.8363 28.0747C30.8374 28.0747 30.8389 28.0747 30.8405 28.0747ZM30.8343 28.0555C30.833 28.0555 30.8315 28.0554 30.8301 28.0362C30.8315 28.0554 30.833 28.0555 30.8343 28.0555ZM30.828 28.0362C30.8265 28.0362 30.8247 28.0171 30.8226 28.0171C30.8247 28.0171 30.8265 28.0362 30.828 28.0362ZM30.8209 28.0171C30.819 28.0171 30.8172 27.998 30.8153 27.998C30.8172 27.998 30.819 28.0171 30.8209 28.0171ZM30.8134 27.998C30.8117 27.998 30.8094 27.9787 30.8075 27.9787C30.8094 27.9787 30.8117 27.998 30.8134 27.998ZM30.8051 27.9787C30.8032 27.9787 30.8009 27.9595 30.7992 27.9595C30.8009 27.9595 30.8032 27.9787 30.8051 27.9787ZM30.7969 27.9595C30.7944 27.9403 30.7921 27.9402 30.79 27.9402C30.7921 27.9402 30.7944 27.9403 30.7969 27.9595ZM30.7875 27.9402C30.7852 27.921 30.7829 27.9211 30.7806 27.9211C30.7829 27.9211 30.7852 27.921 30.7875 27.9402ZM30.7779 27.902C30.7754 27.902 30.7733 27.902 30.771 27.902C30.7733 27.902 30.7754 27.902 30.7779 27.902ZM30.7681 27.8827C30.7658 27.8827 30.7629 27.8827 30.7606 27.8827C30.7629 27.8827 30.7658 27.8827 30.7681 27.8827ZM30.757 27.8635C30.7547 27.8635 30.7524 27.8635 30.7502 27.8635C30.7524 27.8635 30.7547 27.8635 30.757 27.8635ZM30.7458 27.8442C30.7437 27.8442 30.7416 27.8442 30.7395 27.8442C30.7416 27.8442 30.7437 27.8442 30.7458 27.8442ZM30.7339 27.8251C30.732 27.8251 30.7301 27.8251 30.728 27.8251C30.7301 27.8251 30.732 27.8251 30.7339 27.8251ZM30.7214 27.806C30.7195 27.806 30.7176 27.806 30.7159 27.806C30.7176 27.806 30.7195 27.806 30.7214 27.806ZM30.7084 27.7867C30.7068 27.7867 30.7051 27.7867 30.7034 27.7867C30.7051 27.7867 30.7068 27.7867 30.7084 27.7867ZM30.6949 27.7675C30.6936 27.7675 30.6917 27.7675 30.6903 27.7675C30.6917 27.7675 30.6936 27.7675 30.6949 27.7675ZM30.6807 27.7482C30.6792 27.7482 30.6779 27.7482 30.6763 27.7482C30.6779 27.7482 30.6792 27.7482 30.6807 27.7482ZM30.6661 27.7291C30.6648 27.7291 30.6635 27.7291 30.6621 27.7291C30.6635 27.7291 30.6648 27.7291 30.6661 27.7291Z" fill="#F08BA3"/>
<path d="M29.0241 26.4873H27.7792C27.6682 26.198 27.57 25.9281 27.4844 25.6388C27.1251 24.4624 26.9741 23.2087 26.9741 21.9552V19.988C26.9741 18.4837 26.3955 17.1337 25.4696 16.1695C24.5417 15.2052 23.2843 14.6074 21.8907 14.6074C20.4536 14.6074 19.1591 15.2245 18.2243 16.2659C18.1645 16.3237 18.0984 16.3816 18.0267 16.4201C17.9447 16.1694 17.7507 15.9573 17.4789 15.8416C17.3692 15.803 17.2558 15.7837 17.1445 15.7837C16.971 15.7837 16.8016 15.8224 16.6558 15.9188C16.5594 15.6102 16.6225 15.263 16.8525 15.0123C17.0548 14.8002 17.2716 14.588 17.5011 14.3951C17.3613 14.7423 17.4433 15.1474 17.7387 15.4174C17.916 15.5717 18.1381 15.6681 18.3605 15.6681C18.6127 15.6681 18.864 15.5523 19.0469 15.3594C19.982 14.318 21.2761 13.7009 22.714 13.7009C24.1067 13.7009 25.3635 14.2794 26.2921 15.263C27.2173 16.2273 27.7964 17.5774 27.7964 19.0817V21.0487C27.7964 22.3023 27.9472 23.556 28.3059 24.7324C28.4886 25.3302 28.7256 25.928 29.0241 26.4873Z" fill="#EFD0E2"/>
<path d="M29.8166 26.4746H29.024C28.7255 25.9344 28.4884 25.3364 28.3059 24.7384C27.9471 23.5423 27.7963 22.3077 27.7963 21.0538V19.086C27.7963 17.5813 27.2171 16.2309 26.2921 15.2663C25.3634 14.2825 24.1066 13.7038 22.7139 13.7038C21.2761 13.7038 19.9818 14.321 19.0468 15.3628C18.8639 15.5557 18.6125 15.6522 18.3604 15.6522C18.1382 15.6522 17.9157 15.575 17.7386 15.4206C17.4431 15.1505 17.3611 14.7455 17.501 14.3982C18.6912 13.3758 20.2222 12.7584 21.888 12.7584C21.889 12.7584 21.8898 12.7584 21.8907 12.7584C23.8172 12.7584 25.5644 13.5879 26.8103 14.8997C28.0592 16.2115 28.8258 18.0057 28.8258 19.9927V21.9605C28.8258 23.0601 28.9605 24.1211 29.2555 25.105C29.4027 25.5873 29.5882 26.0502 29.8166 26.4746Z" fill="#8C5EB5"/>
<path d="M30.6512 27.7148C30.4814 27.5221 30.2278 27.3872 29.9441 27.3872H28.2018C28.0439 27.0981 27.9036 26.7897 27.7791 26.4813H29.024H29.8167C30.0485 26.9246 30.3245 27.3294 30.6481 27.7148C30.6489 27.7148 30.6504 27.7148 30.6512 27.7148ZM17.5381 16.5749C17.3162 16.5749 17.0936 16.4979 16.9163 16.3244C16.7909 16.2088 16.7038 16.074 16.6558 15.9198C16.8015 15.8234 16.9709 15.7848 17.1445 15.7848C17.2557 15.7848 17.3691 15.8041 17.4789 15.8426C17.7505 15.9582 17.9445 16.1702 18.0265 16.4208C17.8779 16.5172 17.7084 16.5749 17.5381 16.5749Z" fill="#F08BA3"/>
<path d="M29.9435 29.2285H24.576C24.7149 28.9588 24.7959 28.6505 24.8009 28.3229H30.7616C30.7629 28.3229 30.7647 28.3229 30.7662 28.3229C30.782 28.3229 30.798 28.3229 30.8138 28.3229C30.8138 28.3229 30.8138 28.3229 30.8144 28.3229C30.8211 28.3229 30.8286 28.3229 30.8356 28.3229C30.8369 28.3229 30.8379 28.3229 30.8388 28.3229C30.8448 28.3229 30.8514 28.3229 30.8573 28.3229C30.8591 28.3229 30.8606 28.3229 30.8624 28.3229C30.8647 28.3229 30.8672 28.3229 30.8695 28.3229C30.8689 28.3422 30.8689 28.3422 30.8679 28.3615C30.8676 28.3615 30.8672 28.3807 30.8666 28.3807C30.8662 28.3807 30.8656 28.4001 30.8652 28.4001C30.86 28.4579 30.8504 28.4964 30.836 28.5542H30.8356C30.8336 28.5734 30.8323 28.5734 30.8306 28.5734C30.83 28.5734 30.8294 28.5927 30.8292 28.5927C30.8277 28.5927 30.8263 28.5927 30.825 28.5927C30.824 28.612 30.8227 28.6119 30.8217 28.6119C30.8207 28.6119 30.82 28.6119 30.819 28.6119C30.8171 28.6119 30.8151 28.6313 30.8138 28.6313C30.8134 28.6313 30.8128 28.6313 30.8125 28.6313C30.7134 28.901 30.4944 29.1129 30.2198 29.1899C30.2167 29.2092 30.2129 29.2093 30.2092 29.2093C30.2065 29.2093 30.2032 29.2093 30.2003 29.2093C30.1953 29.2093 30.1901 29.2093 30.1851 29.2093C30.1838 29.2093 30.1824 29.2093 30.1811 29.2093C30.105 29.2286 30.0254 29.2285 29.9435 29.2285ZM20.8501 29.2285H19.8027H13.8378C13.4781 29.2285 13.1478 29.0358 12.9973 28.7083C12.8465 28.3807 12.9002 27.9953 13.133 27.7063C13.7769 26.9549 14.2303 26.0879 14.526 25.1052C14.8216 24.1226 14.9563 23.063 14.9563 21.9455V19.9802C14.9563 19.0361 15.1335 18.1113 15.4582 17.2828C15.5797 16.9745 15.8528 16.7626 16.1618 16.7048C15.9131 17.4562 15.7784 18.2462 15.7784 19.094V21.0399C15.7784 22.1574 15.6437 23.2172 15.3478 24.1998C15.052 25.1632 14.5992 26.0495 13.9553 26.8009C13.722 27.0707 13.6686 27.4752 13.8197 27.7835C13.9705 28.1303 14.2998 28.3229 14.6599 28.3229H20.6245C20.6301 28.6505 20.7112 28.9588 20.8501 29.2285Z" fill="#EFD0E2"/>
<path d="M24.5765 29.2275H23.9797H20.8506C20.7116 28.9588 20.6306 28.6516 20.625 28.3253H24.8015C24.7963 28.6516 24.7153 28.9588 24.5765 29.2275Z" fill="#8C5EB5"/>
<path d="M30.7665 28.3271H30.7617H24.8011H20.6247H14.6601C14.3 28.3271 13.9707 28.1151 13.8199 27.7875C13.6688 27.46 13.7222 27.0747 13.9555 26.805C14.5994 26.0535 15.0524 25.1673 15.348 24.1847C15.6439 23.2213 15.7786 22.1422 15.7786 21.0439V19.0788C15.7786 18.2503 15.9133 17.4409 16.162 16.7088C16.2148 16.6895 16.2685 16.6896 16.3225 16.6896C16.4337 16.6896 16.5466 16.7088 16.657 16.7473C17.1333 16.94 17.3703 17.4795 17.1855 17.942C16.9425 18.5778 16.8076 19.2713 16.8076 19.9842V21.9495C16.8076 23.2019 16.657 24.4544 16.2984 25.6297C16.1159 26.2463 15.8786 26.8242 15.5805 27.383H28.2016H29.9438C30.2276 27.383 30.4813 27.5179 30.6511 27.7106C30.6549 27.7106 30.6582 27.7297 30.6616 27.7297C30.6632 27.7297 30.6643 27.7297 30.6659 27.7297C30.6692 27.7297 30.6728 27.7491 30.6759 27.7491C30.6775 27.7491 30.6788 27.7491 30.6803 27.7491C30.6834 27.7491 30.6867 27.7491 30.69 27.7683C30.6913 27.7683 30.6933 27.7683 30.6946 27.7683C30.6973 27.7683 30.7002 27.7682 30.7029 27.7875C30.7048 27.7875 30.7065 27.7875 30.7081 27.7875C30.7108 27.7875 30.7131 27.7876 30.7154 27.8069C30.7171 27.8069 30.7193 27.8069 30.721 27.8069C30.7233 27.8069 30.7256 27.8068 30.7275 27.8261C30.7297 27.8261 30.7318 27.8261 30.7335 27.8261C30.7353 27.8261 30.7372 27.8262 30.7391 27.8455C30.7412 27.8455 30.7433 27.8455 30.7455 27.8455C30.7468 27.8455 30.7484 27.8454 30.7497 27.8647C30.752 27.8647 30.7543 27.8647 30.7566 27.8647C30.7582 27.8647 30.7593 27.8838 30.7603 27.8838C30.7626 27.8838 30.7655 27.8838 30.7676 27.8838C30.7686 27.8838 30.7697 27.8838 30.7705 27.8838C30.773 27.9031 30.7751 27.9032 30.7775 27.9032C30.7784 27.9032 30.7792 27.9032 30.7801 27.9224C30.7825 27.9224 30.7848 27.9224 30.7873 27.9224C30.788 27.9224 30.7886 27.9418 30.7896 27.9418C30.7917 27.9418 30.794 27.9418 30.7965 27.9418C30.7969 27.9611 30.7979 27.961 30.7988 27.961C30.8006 27.961 30.8029 27.9609 30.8048 27.9802C30.8056 27.9802 30.8062 27.9802 30.8071 27.9802C30.8089 27.9802 30.8112 27.9803 30.8131 27.9996C30.8137 27.9996 30.8144 27.9996 30.8148 27.9996C30.8169 27.9996 30.8187 27.9995 30.8204 28.0188C30.821 28.0188 30.822 28.0188 30.8223 28.0188C30.8243 28.0188 30.826 28.0381 30.8275 28.0381C30.8285 28.0381 30.8289 28.0381 30.8297 28.0381C30.8312 28.0381 30.8326 28.0573 30.8339 28.0573C30.8349 28.0573 30.8353 28.0573 30.8358 28.0573C30.8372 28.0766 30.8385 28.0765 30.8401 28.0765C30.8405 28.0765 30.8412 28.0766 30.8418 28.0959C30.8433 28.0959 30.8441 28.0959 30.8455 28.0959C30.846 28.0959 30.8466 28.1151 30.8468 28.1151C30.8484 28.1151 30.8493 28.1151 30.8501 28.1151C30.8507 28.1151 30.8511 28.1345 30.8516 28.1345C30.8524 28.1345 30.8539 28.1344 30.8549 28.1537C30.8553 28.1537 30.8553 28.1537 30.8557 28.1537C30.8566 28.1537 30.8576 28.1536 30.8584 28.1729C30.8589 28.1729 30.8589 28.1729 30.8593 28.1729C30.8603 28.1729 30.8613 28.1922 30.8622 28.1922C30.8632 28.2115 30.8642 28.2114 30.8643 28.2114C30.8649 28.2114 30.8649 28.2114 30.8649 28.2114C30.8655 28.2307 30.8665 28.2307 30.8668 28.25C30.8686 28.2693 30.8697 28.2885 30.8697 28.3078V28.3271C30.8672 28.3271 30.8649 28.3271 30.8626 28.3271C30.8609 28.3271 30.8593 28.3271 30.8576 28.3271C30.8516 28.3271 30.8451 28.3271 30.8391 28.3271C30.838 28.3271 30.8372 28.3271 30.8358 28.3271C30.8289 28.3271 30.8214 28.3271 30.8144 28.3271C30.8141 28.3271 30.8141 28.3271 30.8141 28.3271C30.7983 28.3271 30.7825 28.3271 30.7665 28.3271Z" fill="#F08BA3"/>
</svg>
