<svg width="22" height="20" viewBox="0 0 22 20" fill="none" xmlns="http://www.w3.org/2000/svg">
<path d="M20.8719 13.9197V12.9107H16.3378C16.0583 12.8978 15.8293 12.6778 15.8293 12.3932V11.7981C15.8293 11.5135 16.057 11.2936 16.3378 11.2936H19.8552V13.9197H20.8719V12.9107V13.9197H21.8875V10.2846C21.8875 10.013 21.7801 9.74123 21.5899 9.56012C21.401 9.36607 21.1397 9.26261 20.8719 9.26261H16.3378C14.9355 9.26261 13.7996 10.401 13.7983 11.7981V12.3932C13.7996 13.8033 14.9355 14.9287 16.3378 14.9287H20.8719C21.1397 14.9287 21.401 14.8252 21.5899 14.6312C21.7801 14.4501 21.8875 14.1784 21.8875 13.9197H20.8719" fill="#F08BA3"/>
<path d="M21.8876 4.28175V3.94412C21.8863 2.25571 20.5226 0.892003 18.8394 0.892003H5.04647C3.12559 0.892003 1.56966 2.4505 1.56836 4.37269C1.56966 6.29487 3.12559 7.84043 5.04647 7.84043H18.8394C19.1226 7.85342 19.3706 7.95737 19.5577 8.15219C19.7434 8.33402 19.8551 8.58078 19.8551 8.86651V16.1136C19.8551 16.3994 19.6265 16.6201 19.3473 16.6201H5.63222C5.06726 16.6201 4.56592 16.3993 4.19577 16.0356C3.82562 15.659 3.59966 15.1655 3.59966 14.594V4.48963C3.59966 4.04804 3.77237 3.6714 4.0581 3.38567C4.34253 3.09994 4.72696 2.91804 5.16205 2.91804H15.0782C15.6393 2.91804 16.0951 2.46349 16.0951 1.90502C16.0951 1.34655 15.6393 0.892003 15.0782 0.892003H5.16205C3.17623 0.892003 1.56966 2.50251 1.56836 4.48963V14.594C1.56966 16.8409 3.38665 18.6592 5.63222 18.6592H19.3473C20.7499 18.6592 21.8863 17.5293 21.8876 16.1136V8.86651C21.8863 7.17811 20.5226 5.8144 18.8394 5.8144H5.04647C4.64386 5.8144 4.28931 5.65852 4.02306 5.39877C3.75941 5.12603 3.59966 4.77531 3.59966 4.37269C3.59966 3.97007 3.75941 3.60649 4.02306 3.34673C4.28931 3.08698 4.64386 2.91804 5.04647 2.91804H18.8394C19.1226 2.91804 19.3706 3.03503 19.5577 3.21686C19.7434 3.41167 19.8551 3.65839 19.8551 3.94412V4.28175C19.8551 4.84022 20.311 5.29489 20.8707 5.29489C21.4331 5.29489 21.8876 4.84022 21.8876 4.28175" fill="#8C5EB5"/>
<path d="M18.954 15.9287H15.4363C14.0337 15.9287 12.8973 14.791 12.896 13.3819V12.7873C12.896 11.8953 13.3653 11.1067 14.0711 10.6542C13.8966 11.0032 13.7984 11.3911 13.7984 11.8048V12.3994C13.7996 13.7956 14.9347 14.9332 16.3374 14.9332H18.954V15.9287V15.9287ZM18.954 12.9037V12.283H15.8293V11.8048C15.8293 11.5204 16.0569 11.2877 16.3374 11.2877H18.954V12.9037" fill="#FDE5F3"/>
<path d="M18.9539 14.9248H16.3381C14.9352 14.9248 13.7987 13.7999 13.7974 12.3905V11.7958C13.7974 11.382 13.8969 10.994 14.0715 10.6578C14.4658 10.3992 14.9339 10.257 15.4369 10.257H18.9539V11.2914H16.3381C16.0576 11.2914 15.83 11.5113 15.83 11.7958V12.2871H15.4369C15.155 12.2871 14.9275 12.5068 14.9275 12.7913V13.3862C14.9275 13.6706 15.155 13.8904 15.4369 13.8904H18.9539V12.9077V14.9248" fill="#F08BA3"/>
<path d="M18.4464 19.6514H4.72925C2.48546 19.6514 0.667313 17.8346 0.666016 15.5895V5.48014C0.666016 5.45418 0.667315 5.44116 0.667315 5.42818C0.667315 5.40222 0.666016 5.37627 0.666016 5.36329C0.667313 4.22128 1.21756 3.20904 2.06628 2.57315C1.75093 3.09225 1.56924 3.71521 1.56794 4.37706C1.56794 4.39004 1.56794 4.40294 1.56924 4.42889C1.56794 4.44187 1.56794 4.46788 1.56794 4.48085V14.5902C1.56924 16.8353 3.38738 18.6522 5.63247 18.6522H19.3483C19.8505 18.6522 20.3177 18.5095 20.7122 18.2629C20.293 19.0934 19.4352 19.6514 18.4464 19.6514V19.6514ZM19.3483 16.6277H18.9538V15.927V14.9277H19.8557V16.1216C19.8557 16.3941 19.6273 16.6277 19.3483 16.6277ZM19.8557 9.25651H18.7552C18.7241 9.21758 18.6917 9.1786 18.6566 9.13967C18.4697 8.95798 18.2219 8.84121 17.9377 8.84121H4.14527C3.95969 8.84121 3.77801 8.82826 3.60022 8.8023V7.53054C4.04145 7.73818 4.53069 7.84193 5.04719 7.84193H18.8396C19.1238 7.8549 19.3717 7.95882 19.5585 8.14051C19.7441 8.33517 19.8557 8.58169 19.8557 8.86719V9.25651V9.25651ZM20.3527 6.21975C19.9829 6.01211 19.5637 5.86936 19.1173 5.83043C19.0135 5.6747 18.9538 5.48006 18.9538 5.27242V4.93506C18.9538 4.64956 18.8409 4.40291 18.6566 4.20825C18.4697 4.02657 18.2219 3.92285 17.9377 3.92285H4.26075C4.04792 3.92285 3.84809 3.96171 3.66511 4.03957C3.74038 3.78002 3.87664 3.55946 4.05833 3.37777C4.34383 3.09227 4.72796 2.92356 5.16271 2.92356H18.8396C19.1238 2.92356 19.3717 3.04034 19.5585 3.22202C19.7441 3.4037 19.8557 3.65027 19.8557 3.93578V4.28619C19.8557 4.84422 20.3112 5.2984 20.8718 5.2984C20.9108 5.2984 20.9484 5.29846 20.9861 5.28548C20.9796 5.71373 20.72 6.06402 20.3527 6.21975" fill="#FDE5F3"/>
<path d="M19.348 18.6582H5.63291C3.38709 18.6582 1.56966 16.8408 1.56836 14.595V4.48225C1.56836 4.45628 1.56836 4.44325 1.56966 4.43027C1.56836 4.4043 1.56836 4.39132 1.56836 4.36536C1.56966 3.7033 1.75141 3.09319 2.06687 2.57392C2.64714 2.14553 3.36633 1.88592 4.14522 1.88592H17.9382C19.6219 1.88592 20.985 3.24899 20.9863 4.9366V5.27407V5.28713C20.9486 5.30011 20.911 5.30006 20.872 5.30006C20.3112 5.30006 19.8556 4.84578 19.8556 4.27459V3.93699C19.8556 3.6514 19.7439 3.40474 19.5583 3.223C19.3714 3.02828 19.1234 2.92445 18.8391 2.92445H5.16296C4.72808 2.92445 4.34382 3.09321 4.05823 3.37881C3.87648 3.56055 3.7402 3.78119 3.66491 4.04082C3.47408 4.10573 3.3027 4.22264 3.15601 4.37842C2.88469 4.63805 2.71463 5.01452 2.70035 5.41695C2.71333 5.79341 2.87041 6.13094 3.12226 6.39057C3.38708 6.6502 3.74279 6.80601 4.14522 6.80601H17.9382C19.6219 6.81899 20.985 8.16908 20.9863 9.85669V17.1133C20.9863 17.5288 20.8876 17.9182 20.7124 18.2557C20.3177 18.5153 19.8504 18.6582 19.348 18.6582V18.6582ZM2.69905 8.53254V15.5815C2.69905 16.1527 2.92365 16.659 3.29362 17.0224C3.6636 17.3989 4.16599 17.6197 4.7294 17.6197H18.4458C18.7262 17.6197 18.9533 17.386 18.9533 17.1133V16.6201H19.348C19.6271 16.6201 19.8556 16.3993 19.8556 16.1137V14.9195V9.25946V8.85708C19.8556 8.57148 19.7439 8.33781 19.5583 8.14309C19.3714 7.96135 19.1234 7.84454 18.8391 7.84454H5.04744C4.53077 7.84454 4.04138 7.72765 3.6 7.53293V8.8051C3.28325 8.75317 2.98075 8.66235 2.69905 8.53254V8.53254ZM19.9698 6.28674C19.6128 6.28674 19.2987 6.105 19.1169 5.83238C19.5635 5.87133 19.9828 6.00115 20.3528 6.22183C20.2346 6.26078 20.1048 6.28674 19.9698 6.28674Z" fill="#8C5EB5"/>
<path d="M19.8562 12.9072H18.9541V11.2917H19.8562V12.9072Z" fill="#FDE5F3"/>
<path d="M19.8553 14.9287H18.9536V12.9107H19.8553V11.2936H18.9536V10.2587V9.85763C18.9536 9.63771 18.8812 9.43078 18.7544 9.26261H19.8553V14.9287" fill="#F08BA3"/>
</svg>
