<svg width="22" height="21" viewBox="0 0 22 21" fill="none" xmlns="http://www.w3.org/2000/svg">
<path d="M21.081 10.3842C21.081 16.1053 16.4431 20.7431 10.7221 20.7431C5.00109 20.7431 0.363281 16.1053 0.363281 10.3842C0.363281 4.6632 5.00109 0.0253906 10.7221 0.0253906C16.4431 0.0253906 21.081 4.6632 21.081 10.3842Z" fill="#FEDB0B"/>
<path fill-rule="evenodd" clip-rule="evenodd" d="M10.7221 17.7239C14.7757 17.7239 18.0618 14.4378 18.0618 10.3842C18.0618 6.33063 14.7757 3.04454 10.7221 3.04454C6.66852 3.04454 3.38243 6.33063 3.38243 10.3842C3.38243 14.4378 6.66852 17.7239 10.7221 17.7239ZM10.7221 20.7431C16.4431 20.7431 21.081 16.1053 21.081 10.3842C21.081 4.6632 16.4431 0.0253906 10.7221 0.0253906C5.00109 0.0253906 0.363281 4.6632 0.363281 10.3842C0.363281 16.1053 5.00109 20.7431 10.7221 20.7431Z" fill="url(#paint0_linear)"/>
<path d="M11.0877 14.2253C10.2478 14.2253 9.49363 14.0627 8.8253 13.7376C8.16599 13.4124 7.64668 12.9563 7.26735 12.3693C6.89706 11.7822 6.71191 11.1184 6.71191 10.3778C6.71191 9.63725 6.89706 8.97795 7.26735 8.39993C7.64668 7.81288 8.16599 7.35679 8.8253 7.03165C9.49363 6.70651 10.2478 6.54395 11.0877 6.54395C11.9909 6.54395 12.7631 6.73812 13.4043 7.12648C14.0455 7.51484 14.4881 8.05221 14.7319 8.73861L12.3611 9.90368C12.0721 9.25341 11.6431 8.92827 11.0742 8.92827C10.7129 8.92827 10.4103 9.05472 10.1665 9.3076C9.93166 9.56048 9.81425 9.91723 9.81425 10.3778C9.81425 10.8475 9.93166 11.2087 10.1665 11.4616C10.4103 11.7145 10.7129 11.8409 11.0742 11.8409C11.6431 11.8409 12.0721 11.5158 12.3611 10.8655L14.7319 12.0306C14.4881 12.717 14.0455 13.2544 13.4043 13.6427C12.7631 14.0311 11.9909 14.2253 11.0877 14.2253Z" fill="url(#paint1_linear)"/>
<path d="M4.80168 4.44629C4.80168 5.26991 4.12782 5.94377 3.3042 5.94377C4.12782 5.94377 4.80168 6.61764 4.80168 7.44126C4.80168 6.61764 5.47555 5.94377 6.29917 5.94377C5.43811 5.94377 4.80168 5.26991 4.80168 4.44629Z" fill="#FFFDD4"/>
<path d="M15.7333 14.2256C15.7333 15.0492 15.0595 15.7231 14.2358 15.7231C15.0595 15.7231 15.7333 16.3969 15.7333 17.2206C15.7333 16.3969 16.4072 15.7231 17.2308 15.7231C16.3698 15.7231 15.7333 15.0492 15.7333 14.2256Z" fill="#FFFDD4"/>
<defs>
<linearGradient id="paint0_linear" x1="4.43154" y1="11.5538" x2="17.2037" y2="11.5538" gradientUnits="userSpaceOnUse">
<stop stop-color="#FAA100"/>
<stop offset="1" stop-color="#FB8B01"/>
</linearGradient>
<linearGradient id="paint1_linear" x1="8.28678" y1="10.8182" x2="13.231" y2="10.8182" gradientUnits="userSpaceOnUse">
<stop stop-color="#FAA100"/>
<stop offset="1" stop-color="#FB8B01"/>
</linearGradient>
</defs>
</svg>
