<svg width="28" height="27" viewBox="0 0 28 27" fill="none" xmlns="http://www.w3.org/2000/svg">
<circle r="13.2931" transform="matrix(-1 0 0 1 13.7679 13.4181)" fill="url(#paint0_linear)"/>
<path d="M7.98291 12.2783C7.98373 12.2783 7.98414 12.2783 7.98495 12.2783C7.98414 12.2783 7.98373 12.2783 7.98291 12.2783ZM7.98659 12.258C8.04579 12.1151 8.13766 11.9516 8.26199 11.8291C8.2724 11.8291 8.28321 11.8292 8.29363 11.8088L8.26321 11.8291C8.13827 11.9516 8.04579 12.1151 7.98659 12.258Z" fill="#FDE5F3"/>
<path d="M14.6922 6.48575C14.859 6.31975 15.0849 6.22656 15.3203 6.22656C15.5556 6.22656 15.7815 6.31975 15.9484 6.48575L17.5103 8.04769C17.6763 8.21458 17.7695 8.4404 17.7695 8.67579C17.7695 8.91119 17.6763 9.137 17.5103 9.30389L13.4027 13.4181L17.5169 17.5323C17.6829 17.6992 17.7761 17.925 17.7761 18.1604C17.7761 18.3958 17.6829 18.6216 17.5169 18.7885L15.955 20.3505C15.7881 20.5165 15.5623 20.6097 15.3269 20.6097C15.0915 20.6097 14.8657 20.5165 14.6988 20.3505L8.39786 14.0495C8.23186 13.8826 8.13867 13.6568 8.13867 13.4214C8.13867 13.186 8.23186 12.9602 8.39786 12.7933L14.6922 6.48575Z" fill="#F7F7F8"/>
<defs>
<linearGradient id="paint0_linear" x1="72.4529" y1="13.2933" x2="-0.0884261" y2="13.2933" gradientUnits="userSpaceOnUse">
<stop stop-color="#FFE1E3"/>
<stop offset="1" stop-color="#F4A5B4"/>
</linearGradient>
</defs>
</svg>
