<svg width="19" height="20" viewBox="0 0 19 20" fill="none" xmlns="http://www.w3.org/2000/svg">
<path d="M14.7704 18.8281H10.7114C10.1514 18.8281 9.69629 18.3725 9.69629 17.8145C9.69629 17.2514 10.1514 16.801 10.7114 16.801H14.7704C15.8894 16.801 16.7996 15.8898 16.7996 14.7687V4.62253C16.7996 3.50144 15.8894 2.59022 14.7704 2.59022H10.7114C10.1514 2.59022 9.69629 2.13975 9.69629 1.57664C9.69629 1.01866 10.1514 0.563064 10.7114 0.563064H14.7704C17.009 0.563064 18.8293 2.38547 18.8293 4.62253V14.7687C18.8293 17.0057 17.009 18.8281 14.7704 18.8281Z" fill="#815EB5"/>
<path d="M10.7116 13.7549C10.452 13.7549 10.1925 13.6531 9.99457 13.4546C9.59816 13.0577 9.59816 12.4166 9.99457 12.0197L12.3211 9.69417L9.99457 7.36866C9.59816 6.97175 9.59816 6.33057 9.99457 5.93366C10.391 5.53675 11.0326 5.53675 11.429 5.93366L14.4736 8.97665C14.87 9.37356 14.87 10.0147 14.4736 10.4116L11.429 13.4546C11.2311 13.6531 10.9716 13.7549 10.7116 13.7549" fill="#F08BA3"/>
<path d="M11.7276 10.6924H2.59447C2.03481 10.6924 1.58008 10.2412 1.58008 9.6785C1.58008 9.12086 2.03481 8.66461 2.59447 8.66461H11.7276C12.2877 8.66461 12.742 9.12086 12.742 9.6785C12.742 10.2412 12.2877 10.6924 11.7276 10.6924Z" fill="#F08BA3"/>
<path d="M13.9781 19.5312H9.91955C9.35898 19.5312 8.90479 19.076 8.90479 18.5185C8.90479 18.0173 9.26487 17.603 9.73951 17.5161C9.7124 17.6081 9.69757 17.7053 9.69757 17.8076C9.69757 18.3651 10.1523 18.8203 10.7123 18.8203H14.7714C15.6173 18.8203 16.404 18.5594 17.0551 18.1145C16.3104 18.984 15.2071 19.5312 13.9781 19.5312V19.5312ZM15.6803 16.5749C15.8874 16.2578 16.0076 15.8794 16.0076 15.4702V5.32765C16.0076 4.20752 15.0977 3.29714 13.9781 3.29714H9.91955C9.35898 3.29714 8.90479 2.84191 8.90479 2.27929C8.90479 1.78316 9.26487 1.36887 9.73951 1.28192C9.7124 1.37399 9.69757 1.47118 9.69757 1.57347C9.69757 2.13098 10.1523 2.58618 10.7123 2.58618H14.7714C15.8905 2.58618 16.8004 3.49661 16.8004 4.61673V14.7643C16.8004 15.5571 16.3442 16.2425 15.6803 16.5749" fill="#FCDCEF"/>
<path d="M14.7707 18.8203H10.7121C10.152 18.8203 9.69727 18.3651 9.69727 17.8076C9.69727 17.7053 9.7121 17.6081 9.73921 17.516C9.79803 17.5058 9.85788 17.5007 9.91925 17.5007H13.9779C14.6899 17.5007 15.318 17.1324 15.6801 16.5749C16.344 16.2424 16.8002 15.5571 16.8002 14.7643V4.61643C16.8002 3.49629 15.8903 2.58584 14.7707 2.58584H10.7121C10.152 2.58584 9.69727 2.13063 9.69727 1.57311C9.69727 1.47082 9.7121 1.37363 9.73921 1.28156C9.79803 1.27133 9.85788 1.26622 9.91925 1.26622H13.9779C16.2156 1.26622 18.037 3.08712 18.037 5.32741V15.4701C18.037 16.4828 17.6667 17.4035 17.0549 18.1145C16.4038 18.5595 15.6172 18.8203 14.7707 18.8203" fill="#925EB5"/>
<path d="M9.91877 14.4648C9.659 14.4648 9.39873 14.3632 9.20098 14.1649C8.80497 13.7684 8.80497 13.1278 9.20098 12.7313L10.5252 11.4096H1.80083C1.24011 11.4096 0.785645 10.9521 0.785645 10.3929C0.785645 9.89469 1.14657 9.47783 1.62138 9.39141C1.59393 9.48291 1.57919 9.58459 1.57919 9.68118C1.57919 10.2404 2.03366 10.6979 2.59387 10.6979H11.3178L9.99451 12.0196C9.598 12.4161 9.598 13.0617 9.99451 13.4583C10.1923 13.6565 10.452 13.7531 10.7113 13.7531C10.8597 13.7531 11.0082 13.7226 11.1449 13.6565L10.6356 14.1649C10.4373 14.3632 10.178 14.4648 9.91877 14.4648V14.4648ZM11.2939 8.66958H9.79117L9.20098 8.07986C8.80497 7.68334 8.80497 7.03774 9.20098 6.64122C9.35348 6.48872 9.54158 6.39721 9.73831 6.36163C9.63613 6.70731 9.72153 7.09365 9.99451 7.36816L11.2939 8.66958Z" fill="#FCDCEF"/>
<path d="M10.711 13.752C10.4518 13.752 10.192 13.6554 9.99425 13.4571C9.59722 13.0606 9.59722 12.4149 9.99425 12.0184L11.3175 10.6966H11.7262C12.2865 10.6966 12.7409 10.2442 12.7409 9.67991C12.7409 9.12071 12.2865 8.66829 11.7262 8.66829H11.2936L9.99425 7.36684C9.72126 7.09741 9.63585 6.70598 9.73803 6.36029C9.79802 6.35012 9.85801 6.34505 9.918 6.34505C10.1778 6.34505 10.437 6.44671 10.6353 6.63989L13.6794 9.68502C14.0759 10.0815 14.0759 10.7221 13.6794 11.1186L11.1442 13.6553C11.0079 13.7214 10.8595 13.752 10.711 13.752" fill="#F08BA3"/>
<path d="M11.7276 10.6924H11.319H2.59447C2.03481 10.6924 1.58008 10.2412 1.58008 9.6785C1.58008 9.57711 1.59478 9.48078 1.62216 9.38953C1.68046 9.37939 1.74079 9.37433 1.80162 9.37433H10.5018L9.79206 8.66461H11.2952H11.7276C12.2877 8.66461 12.742 9.12086 12.742 9.6785C12.742 10.2412 12.2877 10.6924 11.7276 10.6924Z" fill="#F08BA3"/>
</svg>
