<svg width="23" height="23" viewBox="0 0 23 23" fill="none" xmlns="http://www.w3.org/2000/svg">
<path d="M6.99342 6.822H5.88037C5.88263 10.4118 8.78607 13.3242 12.3691 13.3242C15.9544 13.3242 18.8578 10.4118 18.8601 6.822C18.8578 3.25479 15.9544 0.342273 12.3691 0.342273C8.78607 0.342273 5.88263 3.25479 5.88037 6.822H6.99342H8.10875C8.10875 5.64798 8.58514 4.58689 9.35728 3.81926C10.1317 3.05164 11.1883 2.57751 12.3691 2.57751C13.5499 2.57751 14.6087 3.05164 15.3831 3.81926C16.1553 4.58689 16.6317 5.64798 16.6317 6.822C16.6317 8.0186 16.1553 9.0796 15.3831 9.84723C14.6087 10.6149 13.5499 11.089 12.3691 11.089C11.1883 11.089 10.1317 10.6149 9.35728 9.84723C8.58514 9.0796 8.10875 8.0186 8.10875 6.822H6.99342Z" fill="#F08BA3"/>
<path d="M22.9536 20.4127C22.9536 15.2576 18.789 11.0929 13.6496 11.0929H11.0878C5.95075 11.0929 1.78613 15.2576 1.78613 20.4127C1.78613 21.0205 2.28365 21.5156 2.90046 21.5156C3.51502 21.5156 4.01251 21.0205 4.01251 20.4127C4.01251 18.4317 4.80265 16.6756 6.08579 15.3925C7.36894 14.1093 9.1316 13.3216 11.0878 13.3216H13.6496C15.6059 13.3216 17.3685 14.1093 18.6539 15.3925C19.9348 16.6756 20.7249 18.4317 20.7249 20.4127C20.7249 21.0205 21.2247 21.5156 21.8392 21.5156C22.456 21.5156 22.9536 21.0205 22.9536 20.4127Z" fill="#805EB5"/>
<path d="M6.56082 12.2783C5.5229 11.1276 4.89111 9.5933 4.89111 7.92359C4.89337 5.98312 5.74402 4.24559 7.09558 3.04972C6.33068 4.13278 5.88166 5.41908 5.8794 6.84058C5.88166 8.73592 6.69394 10.4506 7.99361 11.6239C7.49495 11.8044 7.01661 12.0301 6.56082 12.2783V12.2783ZM14.9861 10.2024C15.4012 9.54808 15.6427 8.78101 15.6427 7.92359C15.6404 6.75028 15.1666 5.68984 14.3949 4.92268C13.6187 4.13295 12.5605 3.65898 11.3804 3.65898C10.3899 3.65898 9.48733 3.99744 8.76303 4.56153C8.93452 4.29076 9.13308 4.04261 9.35646 3.81697C10.1326 3.04981 11.1886 2.57598 12.371 2.57598C13.551 2.57598 14.6093 3.04981 15.3832 3.81697C16.1549 4.6067 16.631 5.66728 16.631 6.84058C16.631 8.01389 16.1549 9.07433 15.3832 9.8415C15.2591 9.97688 15.126 10.0896 14.9861 10.2024" fill="#FDE5F3"/>
<path d="M7.99297 11.6201C6.69516 10.4464 5.88037 8.73126 5.88037 6.83534C5.88037 5.43596 6.33178 4.12682 7.09467 3.06601C8.23674 2.05033 9.73768 1.44088 11.3808 1.44088C14.965 1.44088 17.8699 4.35244 17.8699 7.94116C17.8699 9.29539 17.4455 10.5819 16.7187 11.6201C15.9265 11.3493 15.0846 11.1689 14.2089 11.1237C14.2721 11.056 14.333 11.0107 14.394 10.943C14.6174 10.7173 14.8183 10.4691 14.9876 10.1982C15.1253 10.0854 15.2584 9.97251 15.3826 9.85966C16.1545 9.06969 16.6307 8.009 16.6307 6.83534C16.6307 5.66167 16.1545 4.60067 15.3826 3.83328C14.6084 3.06588 13.5498 2.56941 12.3694 2.56941C11.189 2.56941 10.1326 3.06588 9.35621 3.83328C9.13277 4.05898 8.93414 4.30743 8.76261 4.57828C8.62493 4.66856 8.49176 4.80399 8.36762 4.91684C7.59345 5.68424 7.11949 6.74492 7.11949 7.94116C7.11949 9.11483 7.59571 10.1756 8.36762 10.943C8.5211 11.101 8.68814 11.2365 8.86419 11.3719C8.56852 11.4396 8.27736 11.5298 7.99297 11.6201" fill="#F08BA3"/>
<path d="M20.8503 22.6182C20.2339 22.6182 19.7366 22.1007 19.7366 21.4933C19.7344 19.536 18.9447 17.7811 17.6624 16.4988C16.3778 15.2164 14.6162 14.4292 12.6589 14.4292H10.0987C8.28086 14.4292 6.63178 15.1041 5.37867 16.229C5.59239 15.9365 5.82862 15.644 6.08509 15.3965C7.36971 14.1141 9.13127 13.3267 11.0886 13.3267H13.6488C15.6061 13.3267 17.3677 14.1141 18.6523 15.3965C19.9346 16.6789 20.7243 18.4561 20.7243 20.4134C20.7243 21.0209 21.2237 21.5159 21.8379 21.5159C21.8807 21.5159 21.9234 21.5159 21.9639 21.5159C21.9549 22.1233 21.46 22.6182 20.8503 22.6182V22.6182ZM1.90952 22.6182C1.29309 22.6182 0.795898 22.1007 0.795898 21.4933C0.795898 18.8161 1.91853 16.4314 3.71834 14.7216C2.50572 16.2964 1.78577 18.2762 1.78577 20.4134C1.78577 21.0209 2.28299 21.5159 2.89942 21.5159C2.93992 21.5159 2.98265 21.5159 3.02314 21.5159C3.01414 22.1233 2.51921 22.6182 1.90952 22.6182" fill="#FDE5F3"/>
</svg>
