<svg width="22" height="22" viewBox="0 0 22 22" fill="none" xmlns="http://www.w3.org/2000/svg">
<path d="M14.4329 10.8225H13.4441C13.4386 11.3536 13.2316 11.8115 12.8892 12.1595C12.5431 12.5074 12.078 12.7088 11.5542 12.7088C11.0342 12.7088 10.569 12.5074 10.2229 12.1595C9.88231 11.8115 9.67354 11.3536 9.67354 10.8225C9.67354 10.2914 9.88231 9.83368 10.2229 9.48574C10.569 9.13781 11.0342 8.93637 11.5542 8.93637C12.078 8.93637 12.5431 9.13781 12.8892 9.48574C13.2316 9.83368 13.4386 10.2914 13.4441 10.8225H14.4329H15.4182C15.4182 8.67996 13.6913 6.95867 11.5542 6.95867C9.42267 6.95867 7.6958 8.67996 7.6958 10.8225C7.6958 12.9467 9.42267 14.6865 11.5542 14.6865C13.6913 14.6865 15.4182 12.9467 15.4182 10.8225H14.4329Z" fill="#F08BA3"/>
<path d="M20.4638 12.5127H21.4528V9.15477C21.4528 8.89788 21.3446 8.64103 21.1611 8.45754C20.9776 8.27404 20.7207 8.16402 20.4638 8.16402H17.7664V9.15477L18.7224 8.89799C18.5536 8.27411 18.3059 7.66848 17.9903 7.13635L17.1334 7.63182L17.8325 8.32905L19.7408 6.42083C19.9243 6.23734 20.0289 5.98031 20.0289 5.72342C20.0289 5.44818 19.9243 5.20974 19.7408 5.0079L17.3664 2.64077C17.1829 2.45727 16.926 2.34725 16.6691 2.34725C16.4067 2.34725 16.1499 2.45727 15.9664 2.64077L14.0617 4.54917L14.7645 5.24641L15.2544 4.38395C14.7094 4.07201 14.1168 3.83358 13.4929 3.66844L13.236 4.62246H14.225V1.92525C14.225 1.66836 14.1167 1.41133 13.9333 1.22783C13.7498 1.04434 13.4929 0.934316 13.236 0.934316H9.88171C9.61931 0.934316 9.36245 1.04434 9.17896 1.22783C8.99547 1.41133 8.8927 1.66836 8.8927 1.92525V4.62246H9.88171L9.61933 3.66844C8.99545 3.83358 8.40279 4.07201 7.85782 4.38395L8.35324 5.24641L9.05052 4.54917L7.14584 2.64077C6.96235 2.45727 6.70545 2.34725 6.44856 2.34725C6.18616 2.34725 5.9293 2.45727 5.74581 2.64077L3.37505 5.0079C2.98971 5.41159 2.98971 6.0355 3.37505 6.42083L5.27973 8.32905L5.97701 7.63182L5.12191 7.13635C4.80446 7.66848 4.55858 8.27411 4.38977 8.89799L5.34944 9.15477V8.16402H2.65393C2.39154 8.16402 2.13463 8.27404 1.95114 8.45754C1.76764 8.64103 1.66309 8.89788 1.66309 9.15477V12.5127C1.66309 12.7696 1.76764 13.0266 1.95114 13.2101C2.1383 13.3936 2.39154 13.5036 2.65393 13.5036H5.34944V12.5127L4.38977 12.7696C4.55858 13.3935 4.80446 13.9806 5.12191 14.5311L5.97701 14.0358L5.27973 13.3384L3.37505 15.2468C2.98971 15.6321 2.98971 16.2559 3.37505 16.6413L5.74581 19.0084C5.9293 19.1919 6.18616 19.3019 6.44856 19.3019C6.70545 19.3019 6.96235 19.1919 7.14584 19.0084L9.05052 17.1L8.35324 16.4028L7.85782 17.2652C8.40279 17.5771 8.99545 17.834 9.61933 17.9992L9.88171 17.045H8.8927V19.7424C8.8927 19.9993 8.99547 20.2561 9.17896 20.4396C9.36245 20.6231 9.61931 20.7148 9.88171 20.7148H13.236C13.4929 20.7148 13.7498 20.6231 13.9333 20.4396C14.1167 20.2561 14.225 19.9993 14.225 19.7424V17.045H13.236L13.4929 17.9992C14.1168 17.834 14.7094 17.5771 15.2544 17.2652L14.7645 16.4028L14.0617 17.1L15.9664 19.0084C16.1499 19.1919 16.4067 19.3019 16.6691 19.3019C16.926 19.3019 17.1829 19.1919 17.3664 19.0084L19.7408 16.6413C19.9243 16.4578 20.0289 16.2009 20.0289 15.944C20.0289 15.6688 19.9243 15.4303 19.7408 15.2468L17.8325 13.3384L17.1334 14.0358L17.9903 14.5311C18.3059 13.9806 18.5536 13.3935 18.7224 12.7696L17.7664 12.5127V13.5036H20.4638C20.7207 13.5036 20.9776 13.3936 21.1611 13.2101C21.3446 13.0266 21.4528 12.7696 21.4528 12.5127H20.4638V11.5219H17.7664C17.3169 11.5219 16.926 11.8155 16.8122 12.2559C16.6838 12.7146 16.5058 13.1366 16.2783 13.5403C16.0563 13.9257 16.115 14.4211 16.4325 14.733L17.638 15.944L16.6691 16.9165L15.4618 15.7055C15.1462 15.3936 14.6562 15.3201 14.2691 15.5403C13.8635 15.7788 13.4342 15.9623 12.9736 16.0908C12.5424 16.2009 12.247 16.6046 12.247 17.045V18.7514H10.8708V17.045C10.8708 16.6046 10.5698 16.2009 10.1386 16.0908C9.68356 15.9623 9.24868 15.7788 8.84683 15.5403C8.45599 15.3201 7.96606 15.3936 7.65045 15.7055L6.44856 16.9165L5.47241 15.944L6.67976 14.733C6.9972 14.4211 7.06145 13.9257 6.83942 13.5403C6.60639 13.1366 6.42837 12.7146 6.30359 12.2559C6.18616 11.8155 5.79532 11.5219 5.34944 11.5219H3.64294V10.1457H5.34944C5.79532 10.1457 6.18616 9.83377 6.30359 9.41174C6.42837 8.953 6.60639 8.51251 6.83942 8.10883C7.06145 7.72349 6.9972 7.24652 6.67976 6.93458L5.47241 5.72342L6.44856 4.75094L7.65045 5.94364C7.96606 6.27393 8.45599 6.32905 8.84683 6.10886C9.24868 5.87032 9.68356 5.68675 10.1386 5.57666C10.5698 5.44821 10.8708 5.06284 10.8708 4.62246V2.91601H12.247V4.62246C12.247 5.06284 12.5424 5.44821 12.9736 5.57666C13.4342 5.68675 13.8635 5.87032 14.2691 6.10886C14.6562 6.32905 15.1462 6.27393 15.4618 5.94364L16.6691 4.75094L17.638 5.72342L16.4325 6.93458C16.115 7.24652 16.0563 7.72349 16.2783 8.10883C16.5058 8.51251 16.6838 8.953 16.8122 9.41174C16.926 9.83377 17.3169 10.1457 17.7664 10.1457H19.4747V12.5127H20.4638V11.5219V12.5127" fill="#805EB5"/>
<path d="M10.6774 15.6562C8.5398 15.6562 6.81396 13.9358 6.81396 11.7946C6.81396 10.5684 7.3923 9.47037 8.29273 8.75661C7.91206 9.36056 7.69427 10.0743 7.69427 10.8246C7.69427 12.9659 9.42193 14.6863 11.554 14.6863C12.4545 14.6863 13.2798 14.3934 13.9387 13.881C13.256 14.9425 12.0482 15.6562 10.6774 15.6562ZM12.4288 12.5084C12.513 12.2888 12.5624 12.0508 12.5624 11.7946C12.5624 11.2821 12.3556 10.8064 12.0079 10.477C11.6675 10.1293 11.2026 9.90956 10.6774 9.90956C10.3608 9.90956 10.0643 9.9828 9.80625 10.1292C9.90142 9.8913 10.0442 9.67161 10.2235 9.5069C10.5694 9.15917 11.0343 8.93963 11.554 8.93963C12.0775 8.93963 12.5423 9.15917 12.89 9.5069C13.2304 9.83632 13.439 10.3122 13.4427 10.8246C13.439 11.3554 13.2304 11.8129 12.89 12.1606C12.7509 12.307 12.5972 12.4169 12.4288 12.5084Z" fill="#FDE5F3"/>
<path d="M11.5528 14.6895C9.42011 14.6895 7.69385 12.9685 7.69385 10.8267C7.69385 10.0578 7.9117 9.36223 8.29247 8.75812C8.9515 8.24554 9.77712 7.93433 10.6778 7.93433C12.8105 7.93433 14.5422 9.67336 14.5422 11.7969C14.5422 12.5658 14.3189 13.2799 13.9381 13.8657C13.2791 14.3782 12.4535 14.6895 11.5528 14.6895ZM9.80641 10.1311C9.63433 10.2226 9.48056 10.3324 9.34692 10.4606C9.00093 10.8084 8.79223 11.266 8.79223 11.7969C8.79223 12.3278 9.00093 12.7856 9.34692 13.1334C9.68742 13.4812 10.1524 13.6826 10.6778 13.6826C11.2014 13.6826 11.6663 13.4812 12.0087 13.1334C12.1917 12.9503 12.3308 12.7307 12.4297 12.4927C12.5981 12.4195 12.75 12.2912 12.8892 12.163C13.2297 11.8152 13.4384 11.3576 13.4439 10.8267C13.4384 10.2958 13.2297 9.83819 12.8892 9.49037C12.5432 9.14255 12.0782 8.94118 11.5528 8.94118C11.0329 8.94118 10.5698 9.14255 10.222 9.49037C10.0444 9.67343 9.9016 9.89311 9.80641 10.1311Z" fill="#F08BA3"/>
<path d="M12.3562 21.6943H9.003C8.74069 21.6943 8.48754 21.5842 8.30411 21.4007C8.117 21.2173 8.01247 20.9605 8.01247 20.7037V18.7227C7.89508 18.6676 7.78132 18.631 7.66576 18.576L6.26618 19.97C6.08275 20.1534 5.83143 20.2634 5.56912 20.2634C5.30681 20.2634 5.05367 20.1534 4.87207 19.97L2.49661 17.6036C2.31317 17.4202 2.20493 17.1634 2.20493 16.9066C2.20493 16.6315 2.31317 16.393 2.49661 16.2096L3.17347 15.5309C3.01205 15.8794 3.07627 16.338 3.3771 16.6315L5.74705 18.9978C5.93048 19.1813 6.1873 19.2912 6.44962 19.2912C6.70642 19.2912 6.96319 19.1813 7.14663 18.9978L8.54258 17.6036C8.66181 17.6586 8.77552 17.6955 8.89292 17.7505V19.7316C8.89292 19.9884 8.99749 20.2451 9.18092 20.4286C9.36436 20.612 9.62118 20.722 9.88349 20.722H13.2367C13.2715 20.722 13.3118 20.7221 13.3467 20.7037C13.3412 20.9605 13.2367 21.2173 13.0551 21.4007C12.8716 21.5842 12.6185 21.6943 12.3562 21.6943ZM15.7901 20.2634C15.5277 20.2634 15.2764 20.1534 15.093 19.97L14.2272 19.1078V17.7505C14.3409 17.6955 14.4601 17.6586 14.5739 17.6036L15.968 18.9978C16.1514 19.1813 16.4082 19.2912 16.6705 19.2912C16.9273 19.2912 17.186 19.1813 17.3676 18.9978L19.0662 17.3102C19.0167 17.4203 18.9524 17.5119 18.8626 17.6036L16.4871 19.97C16.3055 20.1534 16.0524 20.2634 15.7901 20.2634ZM12.2479 18.7409H11.3674V18.0072C11.3674 17.567 11.6683 17.1634 12.0993 17.0533C12.1489 17.035 12.1984 17.0167 12.2479 16.9983C12.2479 17.0167 12.2479 17.035 12.2479 17.035V18.7409V18.7409ZM16.7201 16.8516L15.5571 15.696C15.2416 15.3842 15.1774 14.8889 15.3993 14.5037C15.6323 14.1001 15.8102 13.6782 15.9331 13.2197C16.0377 12.8344 16.355 12.541 16.7402 12.4859C16.621 12.8528 16.4687 13.2013 16.2798 13.5315C16.0578 13.9167 16.1166 14.412 16.4339 14.7239L17.6409 15.9344L16.7201 16.8516V16.8516ZM5.51959 15.9712L5.47557 15.9344L6.00384 15.4024C5.95431 15.5125 5.89014 15.6043 5.80209 15.696L5.51959 15.9712V15.9712ZM3.86685 14.7421C3.82833 14.6504 3.78796 14.5587 3.7531 14.467H1.77389C1.51158 14.467 1.26026 14.357 1.07132 14.1735C0.88789 13.9901 0.785156 13.7332 0.785156 13.4764V10.1196C0.785156 9.8444 0.88789 9.60605 1.07132 9.40427C1.23458 9.25752 1.44186 9.14746 1.66565 9.12912V9.14739V12.5042C1.66565 12.761 1.77022 13.0178 1.95181 13.2012C2.14075 13.3846 2.39203 13.4948 2.65434 13.4948H4.63359C4.67762 13.6049 4.72348 13.7148 4.77668 13.8432L3.86685 14.7421ZM19.5853 14.467H18.9671L18.3434 13.8432C18.393 13.7148 18.4425 13.6049 18.4865 13.4948H20.4658C20.5006 13.4948 20.5355 13.4764 20.574 13.4764C20.5685 13.7332 20.4658 13.9901 20.2823 14.1735C20.0989 14.357 19.8476 14.467 19.5853 14.467ZM19.4753 11.5138H18.5948V11.1102H16.8888C16.4376 11.1102 16.0524 10.7983 15.9331 10.3764C15.8102 9.91785 15.6323 9.4775 15.3993 9.07395C15.1774 8.68873 15.2416 8.21181 15.5571 7.88163L16.2303 7.20306C16.1074 7.49656 16.1165 7.82663 16.2798 8.10178C16.5073 8.50534 16.6852 8.94568 16.8136 9.40427C16.9274 9.82617 17.3199 10.138 17.7693 10.138H19.4753V11.5138V11.5138ZM4.47036 11.1102H3.64491V10.138H5.35085C5.40038 10.138 5.44987 10.1379 5.4994 10.1196C5.47555 10.2113 5.44989 10.2847 5.42604 10.3764C5.31231 10.7983 4.9216 11.1102 4.47036 11.1102ZM4.63359 8.15678H3.27437L2.49661 7.3865C2.31317 7.20306 2.20493 6.94611 2.20493 6.68931C2.20493 6.41415 2.31317 6.15745 2.49661 5.97402L3.17347 5.31355C3.01205 5.66208 3.07627 6.12066 3.3771 6.41415L4.77301 7.80836C4.72348 7.91842 4.67762 8.02837 4.63359 8.15678V8.15678ZM18.3673 7.88163C18.3636 7.84494 18.3526 7.8267 18.3434 7.80836L19.0662 7.0929C19.0167 7.18461 18.9524 7.29478 18.8626 7.3865L18.3673 7.88163V7.88163ZM13.886 7.20306C13.7172 7.20306 13.5448 7.16634 13.3907 7.07462C12.9908 6.83616 12.5543 6.65273 12.0939 6.52432C11.6683 6.41426 11.3674 6.02902 11.3674 5.57043V3.8828H10.8722V2.91064H12.2479V4.61654C12.2479 5.05678 12.5451 5.44203 12.9743 5.57043C13.4347 5.68049 13.8658 5.864 14.2712 6.10246C14.4253 6.19418 14.5922 6.23072 14.7665 6.23072C15.0178 6.23072 15.2709 6.13908 15.4635 5.9373L16.6705 4.74498L17.6409 5.71714L16.7201 6.63431L15.7901 5.69887L14.583 6.90946C14.3941 7.11124 14.1428 7.20306 13.886 7.20306V7.20306ZM7.47315 7.20306C7.21634 7.20306 6.96324 7.0929 6.77613 6.90946L5.56912 5.69887L5.51959 5.75386L5.47557 5.71714L6.44962 4.74498L7.65107 5.9373C7.84551 6.13908 8.09683 6.23072 8.35364 6.23072C8.5224 6.23072 8.69115 6.19418 8.8489 6.10246C9.20476 5.90068 9.5918 5.71721 9.99169 5.60715C9.97701 6.02905 9.67986 6.41426 9.2653 6.52432C8.80488 6.65273 8.36834 6.83616 7.96845 7.07462C7.81437 7.16634 7.6419 7.20306 7.47315 7.20306V7.20306ZM8.54809 4.02951L8.01247 3.49766V2.89237C8.01247 2.61722 8.117 2.37868 8.30411 2.1769C8.46369 2.03016 8.67097 1.9201 8.89292 1.90175V1.92003V3.8828C8.77552 3.93783 8.66182 3.99283 8.54809 4.02951" fill="#FDE5F3"/>
<path d="M13.2359 20.7227H9.88093C9.61862 20.7227 9.3618 20.6127 9.17836 20.4292C8.99493 20.2458 8.8922 19.989 8.8922 19.7322V17.7512C8.77296 17.7145 8.65925 17.6593 8.54002 17.6043L7.1459 19.0168C6.96247 19.2002 6.7057 19.2919 6.44705 19.2919C6.18474 19.2919 5.92792 19.2002 5.74449 19.0168L3.37637 16.6321C3.07371 16.3386 3.00949 15.8984 3.17274 15.5315L3.89546 14.8162C3.88446 14.7979 3.8753 14.7611 3.86613 14.7428L4.77595 13.8439C4.72092 13.7338 4.67689 13.6055 4.63287 13.4955H2.65361C2.3913 13.4955 2.13819 13.3853 1.95109 13.2019C1.76766 13.0184 1.66309 12.7617 1.66309 12.5049V9.14805C1.66309 9.14805 1.66309 9.14813 1.66309 9.12978C1.69794 9.12978 1.73281 9.12978 1.77316 9.12978H3.75238C3.7964 9.01972 3.84593 8.89125 3.89546 8.78119L3.2718 8.15744H4.63287C4.67689 8.04738 4.72092 7.93743 4.77044 7.80902L3.37637 6.41482C3.07371 6.12132 3.00949 5.68108 3.17274 5.31422L4.86951 3.60832C5.05294 3.42488 5.30425 3.31489 5.56656 3.31489C5.82887 3.31489 6.08202 3.42488 6.26546 3.60832L7.66504 5.02079C7.77876 4.96576 7.89252 4.91077 8.01175 4.87408V3.5166L8.54553 4.04863C8.65926 3.9936 8.77296 3.93861 8.8922 3.90192V1.92069C8.8922 1.92069 8.8922 1.92076 8.8922 1.90242C8.92705 1.90242 8.96559 1.90242 9.00044 1.90242H12.3555C12.6178 1.90242 12.8691 2.01241 13.0525 2.19584C13.2396 2.37927 13.3441 2.63623 13.3441 2.89303V4.87408C13.4634 4.91077 13.5771 4.96576 13.6909 5.02079L15.0904 3.60832C15.2739 3.42488 15.527 3.31489 15.7875 3.31489C16.0498 3.31489 16.3029 3.42488 16.4864 3.60832L18.86 5.99296C19.1572 6.28645 19.2269 6.72669 19.0636 7.09356L18.3409 7.80902C18.3519 7.82737 18.3611 7.86395 18.3666 7.88229L17.4604 8.78119C17.51 8.89125 17.5594 9.01972 17.6035 9.12978H19.5827C19.845 9.12978 20.0982 9.23977 20.2798 9.4232C20.4687 9.60664 20.5733 9.86341 20.5733 10.1202V13.477C20.5733 13.477 20.5733 13.4771 20.5733 13.4955C20.5329 13.4955 20.4981 13.4955 20.4632 13.4955H18.484C18.4399 13.6055 18.3904 13.7338 18.3409 13.8439L18.9646 14.4676H17.6035C17.5594 14.5777 17.51 14.6878 17.4604 14.8162L18.86 16.2103C19.1572 16.5038 19.2269 16.944 19.0636 17.3109L17.3669 19.0168C17.1834 19.2002 16.9266 19.2919 16.6698 19.2919C16.4075 19.2919 16.1489 19.2002 15.9673 19.0168L14.5713 17.6043C14.4576 17.6593 14.3384 17.7145 14.2246 17.7512V19.1085L13.6909 18.5766C13.5771 18.6317 13.4634 18.6866 13.3441 18.7233V20.7044C13.3441 20.7044 13.3441 20.7043 13.3441 20.7227C13.3093 20.7227 13.2708 20.7227 13.2359 20.7227V20.7227ZM7.47242 16.3754C7.63935 16.3754 7.81364 16.4304 7.96589 16.5221C8.36761 16.7422 8.80232 16.9256 9.26274 17.054C9.6883 17.1824 9.98913 17.5676 9.98913 18.0079V19.7138H11.3649V18.7416H12.2454V17.0357V17.0174C12.6471 16.889 13.0286 16.7239 13.3882 16.5221C13.5422 16.4304 13.7147 16.3754 13.8835 16.3754C14.1403 16.3754 14.3934 16.4854 14.5805 16.6688L15.7875 17.8794L16.7634 16.9073L16.7193 16.8705L17.6384 15.9351L16.4313 14.7245C16.114 14.4127 16.0553 13.9357 16.2791 13.5322C16.4662 13.2204 16.6203 12.8535 16.7377 12.4866C16.7872 12.4866 16.8367 12.4866 16.8863 12.4866H18.594V11.5144H19.4745V10.1387H17.7667C17.3173 10.1387 16.9266 9.84517 16.8129 9.40493C16.6845 8.94635 16.5065 8.52445 16.2791 8.1209C16.114 7.8274 16.1048 7.49715 16.2295 7.222L16.7634 6.68997L16.7193 6.63498L17.6384 5.71781L16.6698 4.74564L15.461 5.95623C15.2684 6.13967 15.0171 6.24984 14.7639 6.24984C14.5915 6.24984 14.4227 6.19484 14.2687 6.10312C13.8633 5.883 13.434 5.6995 12.9736 5.57109C12.5425 5.44269 12.2454 5.05744 12.2454 4.6172V2.9113H10.8715V3.88347H9.98913V5.58937V5.60782C9.58924 5.73622 9.20404 5.90135 8.84817 6.10312C8.68859 6.19484 8.51984 6.24984 8.35291 6.24984C8.0961 6.24984 7.84295 6.13967 7.65035 5.95623L6.44705 4.74564L5.47301 5.71781L5.51703 5.75453L4.59252 6.68997L5.79953 7.90074C6.11687 8.21258 6.18104 8.68951 5.95726 9.09306C5.77015 9.4049 5.61607 9.75346 5.49867 10.1387C5.44914 10.1387 5.39965 10.1387 5.35012 10.1387H3.64234V11.1108H2.76185V12.4866H4.46963C4.91905 12.4866 5.30975 12.7801 5.42348 13.2203C5.54821 13.6789 5.72613 14.1008 5.95726 14.5044C6.12051 14.7979 6.13152 15.1279 6.00311 15.4031L5.47301 15.9351L5.51703 15.9901L4.59252 16.9073L5.56656 17.8794L6.77357 16.6688C6.96251 16.4854 7.21378 16.3754 7.47242 16.3754V16.3754ZM19.5827 13.477V12.4866V13.477ZM20.4632 12.5049V11.5144V12.5049Z" fill="#8C5EB5"/>
</svg>
