<svg width="22" height="22" viewBox="0 0 22 22" fill="none" xmlns="http://www.w3.org/2000/svg">
<path d="M14.9031 5.73183L19.4241 10.214L18.1202 11.5141L16.7522 10.214C16.3525 9.82593 15.7122 9.84545 15.3203 10.2335L14.0396 11.5336C13.1063 12.4844 12.5824 13.7649 12.5824 15.1038C12.5824 15.162 12.5824 15.2397 12.5882 15.3173L12.6425 16.5979V16.6367C12.6425 16.9084 12.5358 17.18 12.3437 17.374L11.4997 18.2083L7.75089 14.4828C7.35505 14.0947 6.71476 14.0947 6.31892 14.4828L1.9395 18.907C1.54949 19.2951 1.5495 19.9353 1.95116 20.3427C2.34699 20.7308 2.99117 20.7309 3.38312 20.3234L7.04462 16.6367L10.7895 20.3623C11.1853 20.7503 11.8257 20.7503 12.2215 20.3623L13.7816 18.81C14.3559 18.2279 14.676 17.4517 14.676 16.6367L14.6702 16.5202L14.6198 15.2396V15.2203L14.614 15.1038C14.614 14.3082 14.9303 13.5321 15.4871 12.9694L16.0673 12.3679L16.7115 12.9889C17.1034 13.3769 17.6157 13.5515 18.1202 13.5515C18.6383 13.5515 19.1719 13.3575 19.5619 12.95L20.8678 11.6499C21.2597 11.2425 21.4576 10.7185 21.4576 10.214C21.4576 9.6901 21.2539 9.16632 20.8581 8.77825L16.337 4.27656C15.9354 3.88849 15.295 3.88841 14.8992 4.29589C14.5034 4.68396 14.5034 5.32436 14.9031 5.73183" fill="#805EB5"/>
<path d="M17.8904 5.8196L13.3687 1.33298C12.9725 0.944525 12.45 0.750296 11.9373 0.750296C11.4187 0.750296 10.8903 0.944449 10.4941 1.35233L9.18889 2.67324C8.79654 3.0617 8.59842 3.58608 8.59842 4.09107C8.59842 4.61549 8.79265 5.12045 9.17722 5.50891L9.80847 6.16936L9.23356 6.75205C8.66058 7.33474 7.87785 7.64543 7.06403 7.64543H6.95331H6.95914L5.68304 7.60655H5.57625C4.76826 7.60655 3.99715 7.91743 3.42224 8.50011L1.85868 10.0539C1.66445 10.2482 1.55762 10.5005 1.55762 10.7724C1.55762 11.0444 1.66445 11.2969 1.85868 11.4911L4.11759 13.7443C4.51576 14.1328 5.16058 14.1326 5.55098 13.7248C5.94721 13.3363 5.9472 12.6955 5.54515 12.2876L4.0127 10.7724L4.85562 9.93729C5.04791 9.74307 5.30822 9.64595 5.57625 9.64595H5.60731H5.6112L6.8873 9.68483C6.94363 9.68483 7.00382 9.68483 7.06403 9.68483C8.42169 9.68483 9.72689 9.14103 10.6864 8.16989L11.9508 6.86851C12.3373 6.48005 12.3432 5.85856 11.9567 5.45068L10.6301 4.09107L11.9373 2.7897L16.4569 7.27632C16.8532 7.66478 17.498 7.66485 17.8942 7.25697C18.2905 6.86851 18.2866 6.22748 17.8904 5.8196" fill="#F08BA3"/>
<path d="M10.6008 21.6494C10.3411 21.6494 10.0834 21.5525 9.88382 21.3587L6.14182 17.638L2.48313 21.3199C2.28547 21.5331 2.02193 21.6301 1.76226 21.6301C1.50259 21.6301 1.24486 21.5332 1.04526 21.3394C0.649941 20.9325 0.644124 20.293 1.04138 19.886L1.74097 19.1883C1.5685 19.5565 1.63435 20.0217 1.95022 20.3317C2.14788 20.5255 2.40178 20.6224 2.66145 20.6224C2.925 20.6224 3.18466 20.5255 3.38232 20.3317L7.04484 16.6498L10.7888 20.351C10.9864 20.5642 11.2461 20.6612 11.5058 20.6612C11.7635 20.6612 12.0232 20.5642 12.2208 20.351L13.2828 19.3047C13.1665 19.4791 13.0289 19.6535 12.8778 19.7892L11.3178 21.3587C11.1182 21.5525 10.8605 21.6494 10.6008 21.6494V21.6494ZM11.6531 18.0451C11.7093 17.9288 11.7383 17.7737 11.7383 17.638V17.5992L11.6841 16.3203C11.6841 16.2428 11.6841 16.1653 11.6841 16.0877C11.6841 14.77 12.2015 13.4911 13.1355 12.5415L13.558 12.1151C12.9282 12.9678 12.5813 14.0143 12.5813 15.0995C12.5813 15.177 12.5813 15.2351 12.5871 15.3126L12.6433 16.5917V16.6498C12.6433 16.9211 12.5367 17.1731 12.3429 17.3668L11.6531 18.0451V18.0451ZM17.2205 14.557C16.7167 14.557 16.2051 14.3631 15.8136 13.9949L15.1683 13.3748L15.1218 13.4135C15.2284 13.2585 15.3505 13.1035 15.4881 12.9679L16.0675 12.367L16.7128 12.9872C17.1023 13.3748 17.6158 13.5686 18.1197 13.5492C18.1236 13.5492 18.1236 13.5492 18.1236 13.5492C18.6429 13.5492 19.17 13.3553 19.5614 12.9484L20.2687 12.2508C20.1873 12.3865 20.0847 12.5221 19.9626 12.6384L18.6623 13.9561C18.2669 14.3437 17.7379 14.557 17.2205 14.557ZM18.4801 11.1657L15.5598 8.25894C15.7575 8.45273 16.0171 8.54962 16.271 8.54962C16.5345 8.54962 16.7942 8.45273 16.9918 8.25894C17.0732 8.18143 17.1391 8.08446 17.1837 7.98757L19.4239 10.2161L18.4801 11.1657" fill="#FDE5F3"/>
<path d="M11.5051 20.6562C11.2454 20.6562 10.9857 20.5593 10.788 20.3655L7.04345 16.6444L3.38226 20.3269C3.18263 20.5401 2.92485 20.6369 2.65932 20.6369C2.40154 20.6369 2.14761 20.54 1.94798 20.3462C1.63399 20.0361 1.56813 19.5709 1.74063 19.1833L5.41346 15.4815C5.61116 15.2877 5.87474 15.1907 6.13446 15.1907C6.39417 15.1907 6.65388 15.2877 6.85157 15.4815L10.6 19.2026L11.4431 18.3692C11.5303 18.2723 11.6001 18.1755 11.6505 18.0592L12.3424 17.3614C12.5363 17.1675 12.6429 16.9157 12.6429 16.6444V16.6056L12.5867 15.3263C12.5808 15.2487 12.5808 15.1714 12.5808 15.0938C12.5808 14.0278 12.9258 12.9811 13.5557 12.109L14.4202 11.2368C14.6179 11.0236 14.8814 10.9268 15.1412 10.9268C15.3951 10.9268 15.649 11.0237 15.8467 11.2175L17.2189 12.5159L18.5194 11.2175L18.4787 11.1592L19.4245 10.2096L17.184 8C17.2499 7.84494 17.2848 7.70931 17.2848 7.55425C17.4011 7.55425 17.5193 7.51549 17.6259 7.45735L19.9517 9.76385C20.3471 10.1709 20.5506 10.6942 20.5506 11.2175C20.5506 11.5664 20.4556 11.9346 20.2676 12.2447L19.5602 12.9618C19.1687 13.3495 18.6415 13.5626 18.124 13.5626C18.124 13.5626 18.124 13.5626 18.1182 13.5626C17.6162 13.5626 17.1026 13.3687 16.7111 13.0005L16.0657 12.3804L15.4862 12.9618C15.3505 13.0975 15.2284 13.2525 15.1218 13.4076L14.5869 13.9695C14.0229 14.5316 13.7089 15.3069 13.7089 16.1015L13.7147 16.2179V16.2372L13.7689 17.5166V17.6328C13.7689 18.2336 13.5965 18.815 13.2825 19.2995L12.2203 20.3655C12.0226 20.5593 11.7629 20.6562 11.5051 20.6562V20.6562Z" fill="#8C5EB5"/>
<path d="M17.2853 7.56836C17.2912 7.29683 17.1884 7.02533 16.9847 6.83138L15.4312 5.27977L17.6248 7.45206C17.5181 7.51025 17.4017 7.54896 17.2853 7.56836" fill="#F08BA3"/>
<path d="M3.93149 15.0361C3.67142 15.0361 3.41329 14.939 3.21532 14.7255L0.954176 12.4935C0.762029 12.2994 0.655273 12.0472 0.655273 11.7755C0.655273 11.5038 0.762029 11.2514 0.954176 11.0573L1.64514 10.3585C1.58885 10.4944 1.55975 10.6303 1.55975 10.7855C1.55975 11.0379 1.66651 11.3096 1.85865 11.5037L4.11975 13.7357C4.31772 13.9298 4.57585 14.0268 4.83592 14.0268C4.87086 14.0268 4.90581 14.0268 4.94657 14.0268C4.94268 14.2792 4.84564 14.5314 4.65155 14.7255C4.45358 14.9196 4.18963 15.0361 3.93149 15.0361ZM4.07317 10.8244L4.01299 10.7662L4.85535 9.93167C5.04944 9.73759 5.30757 9.64054 5.57735 9.64054H5.60839H5.61227L6.88744 9.67921C6.94372 9.67921 7.00388 9.67921 7.06598 9.67921C8.42071 9.67921 9.72695 9.1358 10.6877 8.16536L11.2408 7.60262C11.1962 7.69967 11.1302 7.7966 11.0525 7.87423L9.78321 9.15532C8.8283 10.1452 7.52211 10.6885 6.16155 10.6885C6.09945 10.6885 6.04508 10.6885 5.98879 10.6885H5.98301L4.70784 10.6303H4.67292C4.4536 10.6303 4.24591 10.7079 4.07317 10.8244V10.8244ZM8.83414 7.07855L8.27514 6.51562C7.89279 6.12745 7.70065 5.60345 7.70065 5.09882C7.70065 4.57479 7.89863 4.05067 8.28874 3.6625L8.88461 3.06091C8.69634 3.37144 8.5993 3.74017 8.5993 4.08953C8.5993 4.61357 8.79339 5.11816 9.17962 5.50633L9.80846 6.1663L9.23397 6.74856C9.1117 6.86502 8.97582 6.98151 8.83414 7.07855Z" fill="#FDE5F3"/>
<path d="M4.83613 14.0342C4.57594 14.0342 4.31771 13.9371 4.11966 13.7429L1.85757 11.4907C1.66535 11.2965 1.55859 11.044 1.55859 10.7722C1.55859 10.6363 1.58965 10.5004 1.64596 10.3645L2.51972 9.49076C3.09251 8.90825 3.8711 8.59747 4.67301 8.59747H4.77981L6.05551 8.65568H6.04968H6.16231C6.97976 8.65568 7.76225 8.32575 8.33504 7.74325L8.90394 7.16074L8.83407 7.083C8.97581 6.98591 9.11169 6.86945 9.23402 6.73353L9.8088 6.15103L9.17775 5.51031C8.7933 5.12198 8.59913 4.59757 8.59913 4.09273C8.59913 3.74323 8.69621 3.37435 8.88455 3.06368L9.58936 2.34522C9.98546 1.93747 10.5156 1.74337 11.0282 1.74337C11.0321 1.74337 11.032 1.74337 11.032 1.74337C11.5504 1.74337 12.0747 1.93754 12.465 2.32588L15.4319 5.27727L16.9872 6.81109C17.1891 7.02467 17.292 7.29666 17.2862 7.54908C17.2513 7.56849 17.2105 7.56842 17.1736 7.56842C16.9153 7.56842 16.6571 7.47141 16.4591 7.25783L14.8785 5.70448L11.9369 2.77243L10.6321 4.09273L10.6767 4.1316L9.73304 5.0831L11.0534 6.46162C11.3582 6.75287 11.4184 7.21884 11.2417 7.58776L10.6864 8.17026C9.72725 9.1411 8.42241 9.68493 7.06518 9.68493C7.00498 9.68493 6.94287 9.68493 6.8885 9.68493L5.6128 9.64606H5.60697H5.57786C5.30797 9.64606 5.04779 9.74314 4.85556 9.93731L4.01286 10.7722L4.07306 10.8304C4.03229 10.8498 3.99149 10.8887 3.95654 10.9275L3.11388 11.7624L4.64779 13.2964C4.85167 13.4905 4.95264 13.7623 4.94682 14.0342C4.90604 14.0342 4.87108 14.0342 4.83613 14.0342" fill="#F08BA3"/>
<path d="M16.2691 8.57129C16.0148 8.57129 15.7547 8.47424 15.5567 8.28013C15.5567 8.26072 15.5528 8.2608 15.5528 8.2608L11.0322 3.77688L10.675 4.14575L10.6304 4.10689L11.9347 2.78702L14.8773 5.69859C14.8871 5.718 14.8929 5.71803 14.9026 5.73744L17.1833 7.98898C17.1367 8.08603 17.0707 8.18316 16.9892 8.2608C16.7912 8.47431 16.5331 8.57129 16.2691 8.57129" fill="#FDE5F3"/>
<path d="M17.1847 7.99023L14.9041 5.72127C14.8944 5.72127 14.8886 5.70195 14.8789 5.70195L16.4594 7.27267C16.6572 7.4666 16.9151 7.56356 17.175 7.56356C17.2099 7.56356 17.2506 7.56356 17.2875 7.56356C17.2875 7.69931 17.2506 7.85449 17.1847 7.99023" fill="#8C5EB5"/>
</svg>
